<svg id="Layer_1" data-name="Layer 1" xmlns="http://www.w3.org/2000/svg" viewBox="0 0 145.63 130.77">
<defs><style>.cls-1{fill:#ffffff;stroke:#000000;stroke-linecap:square;stroke-miterlimit:333.33;stroke-width:8px;}</style>
</defs><g id="cheque"><rect class="cls-1" x="20.39" y="27.26" width="104.85" height="76.24"/><path class="cls-1" d="M39.46,79.69H51.34a7.13,7.13,0,0,0,7.19-7.09v0h0a7.14,7.14,0,0,0-7.14-7.14h-5a7.14,7.14,0,0,1-7.14-7.14h0a7.14,7.14,0,0,1,7.14-7.14H58.53"/>
<line class="cls-1" x1="49" y1="41.59" x2="49" y2="51.13"/>
<line class="cls-1" x1="49" y1="89.23" x2="49" y2="79.69"/>
<line class="cls-1" x1="77.56" y1="46.34" x2="106.17" y2="46.34"/><line class="cls-1" x1="77.56" y1="65.41" x2="106.17" y2="65.41"/><line class="cls-1" x1="77.56" y1="84.48" x2="106.17" y2="84.48"/></g></svg>