<svg id="Layer_1" data-name="Layer 1" xmlns="http://www.w3.org/2000/svg" viewBox="0 0 145.63 130.77">
<defs><style>.cls-1{fill:#062f70;}</style></defs>
<path class="cls-1" d="M83.56,40.35a2.7,2.7,0,0,0-2.66-2.24H20.34a3.16,3.16,0,1,0,0,6.31H35.08a3.16,3.16,0,0,1,0,6.32H15.37a3.16,3.16,0,1,0,0,6.32H42.23a2.79,2.79,0,1,1,0,5.58H28A3.16,3.16,0,0,0,28,69H38.48a2.79,2.79,0,0,1,0,5.58H24a3.16,3.16,0,0,0,0,6.32H43.91L45.17,88H52.4a8.83,8.83,0,1,0,16.31,0H91.65Zm-19.21,51A3.8,3.8,0,1,1,58.8,88h3.51A3.79,3.79,0,0,1,64.35,91.33Z"/><path class="cls-1" d="M129.55,82.45l-3.63-17.88L112.69,44.22H88.6L96.06,88h8.82a8.67,8.67,0,0,0-.67,3.35,8.82,8.82,0,1,0,17.64,0,8.67,8.67,0,0,0-.67-3.35H125a4.61,4.61,0,0,0,4.53-5.53ZM102.24,52.36h6l7.84,12H104.3Zm14.59,39A3.8,3.8,0,1,1,111.27,88h3.52A3.79,3.79,0,0,1,116.83,91.33Z"/></svg>