<svg id="Layer_1" data-name="Layer 1" xmlns="http://www.w3.org/2000/svg" viewBox="0 0 145.63 130.77">
<defs><style>.cls-1,.cls-2{fill:#FFFFFF;stroke:#000;stroke-linecap:round;stroke-width:6px;}.cls-1{stroke-miterlimit:133.33;}.cls-2{stroke-linejoin:round;}</style></defs>
<path class="cls-1" d="M56.22,39.9c.06-12,.6-18.56,4.85-22.81,4.87-4.87,12.7-4.87,28.35-4.87H95c15.66,0,23.49,0,28.35,4.87s4.87,12.69,4.87,28.35V89.73c0,15.66,0,23.49-4.87,28.35S110.62,123,95,123H89.42c-15.65,0-23.48,0-28.35-4.87-4.25-4.25-4.79-10.77-4.85-22.81"/>
<path class="cls-2" d="M89.42,67.58h-72m0,0L36.83,51M17.45,67.58,36.83,84.19"/></svg>