<svg id="Layer_1" data-name="Layer 1" xmlns="http://www.w3.org/2000/svg" viewBox="0 0 145.63 130.77">
<defs><style>.cls-1,.cls-2{fill:#FFFFFF;stroke:#000;stroke-miterlimit:133.33;stroke-width:6px;}.cls-1{stroke-linecap:round;}</style></defs>
<g id="style_linear" data-name="style=linear"><g id="notification-bell-new"><path id="vector" class="cls-1" d="M83.29,106.83A10.79,10.79,0,0,1,82,112a13.74,13.74,0,0,1-3.78,4.35,18.33,18.33,0,0,1-5.65,2.91,22.11,22.11,0,0,1-13.34,0,18.27,18.27,0,0,1-5.66-2.91A13.74,13.74,0,0,1,49.75,112a10.89,10.89,0,0,1-1.32-5.14"/><path id="vector_2" data-name="vector 2" class="cls-1" d="M106.86,56.46a46.53,46.53,0,0,0,4,14l1.54,3.32a21.35,21.35,0,0,1-15.49,30L96,104a165.57,165.57,0,0,1-60.21,0A20.7,20.7,0,0,1,21.3,73.74l1.32-2.43a45.46,45.46,0,0,0,5.47-21.62V42A34.08,34.08,0,0,1,47,11.52a44.05,44.05,0,0,1,32.2-2.76"/><circle id="vector_3" data-name="vector 3" class="cls-2" cx="101.44" cy="28.14" r="14.53"/></g></g></svg>