<svg version="1.2" xmlns="http://www.w3.org/2000/svg" viewBox="0 0 75 85" width="50" height="60" style="height: 26px; width: 26px;">
	<title>order-svg</title>
	<path id="Layer" class="s0" d="m20.1 39.6h34.2v3.8h-34.2zm0 17h20.9v3.9h-20.9z"/>
	<path id="Layer" class="s0" d="m61.8 81.4h-49.3q-0.4 0-0.8-0.1-0.4 0-0.7-0.1-0.4 0-0.8-0.2-0.4-0.1-0.7-0.2-0.3-0.1-0.7-0.3-0.3-0.2-0.6-0.4-0.3-0.2-0.6-0.4-0.2-0.3-0.5-0.5-0.2-0.3-0.5-0.6-0.2-0.2-0.4-0.5-0.2-0.3-0.4-0.6-0.2-0.4-0.3-0.7-0.1-0.4-0.3-0.7-0.1-0.4-0.1-0.8-0.1-0.3-0.1-0.7-0.1-0.4-0.1-0.8v-51.3q0-0.4 0.1-0.8 0-0.4 0.1-0.7 0-0.4 0.1-0.8 0.2-0.4 0.3-0.7 0.1-0.3 0.3-0.7 0.2-0.3 0.4-0.6 0.2-0.3 0.4-0.6 0.2-0.2 0.5-0.5 0.3-0.3 0.5-0.5 0.3-0.2 0.6-0.4 0.3-0.2 0.6-0.4 0.4-0.2 0.7-0.3 0.3-0.2 0.7-0.3 0.4-0.1 0.8-0.1 0.3-0.1 0.7-0.2 0.4 0 0.8 0h7.5v3.8h-7.5q-0.8 0-1.5 0.3-0.7 0.3-1.2 0.8-0.5 0.6-0.8 1.3-0.3 0.7-0.3 1.4v51.4q0 0.8 0.3 1.5 0.3 0.7 0.8 1.2 0.5 0.5 1.2 0.8 0.7 0.3 1.5 0.3h49.3q0.7 0 1.4-0.3 0.7-0.3 1.3-0.8 0.5-0.6 0.8-1.2 0.3-0.7 0.3-1.5v-51.4q0-0.8-0.3-1.5-0.3-0.7-0.8-1.2-0.6-0.5-1.3-0.8-0.7-0.3-1.4-0.3h-7.4v-3.8h7.4q0.4 0 0.8 0 0.4 0.1 0.8 0.1 0.3 0.1 0.7 0.2 0.4 0.1 0.7 0.3 0.4 0.1 0.7 0.3 0.3 0.1 0.6 0.3 0.3 0.2 0.6 0.5 0.3 0.2 0.5 0.5 0.3 0.2 0.5 0.5 0.2 0.3 0.4 0.6 0.2 0.3 0.4 0.6 0.2 0.3 0.3 0.7 0.2 0.3 0.3 0.7 0.1 0.4 0.2 0.7 0 0.4 0.1 0.8 0 0.4 0 0.8v51.3q0 0.4 0 0.7-0.1 0.4-0.1 0.8-0.1 0.4-0.2 0.7-0.1 0.4-0.3 0.8-0.1 0.3-0.3 0.6-0.1 0.4-0.3 0.7-0.2 0.3-0.5 0.5-0.2 0.3-0.5 0.6-0.2 0.2-0.5 0.4-0.3 0.3-0.6 0.5-0.3 0.2-0.6 0.4-0.3 0.1-0.7 0.3-0.3 0.1-0.7 0.3-0.3 0.1-0.7 0.2-0.4 0-0.8 0.1-0.4 0-0.8 0z"/>
	<path id="Layer" fill-rule="evenodd" class="s0" d="m56.1 26.3h-37.9v-12.4q0-0.9 0.4-1.8 0.3-0.9 1-1.6 0.7-0.6 1.6-1 0.8-0.4 1.8-0.4h4.9c0.9-1.7 2.2-3.1 3.9-4.1 1.6-1 3.5-1.6 5.4-1.6 2 0 3.9 0.6 5.5 1.6 1.7 1 3 2.4 3.9 4.2l4.9-0.1q0.9 0 1.8 0.4 0.9 0.4 1.5 1 0.7 0.7 1.1 1.6 0.3 0.9 0.3 1.8zm-34.1-3.8h30.4v-8.5q0-0.2-0.1-0.4 0-0.2-0.2-0.4-0.1-0.1-0.3-0.2-0.2 0-0.4 0h-7.5l-0.4-1.3c-0.5-1.3-1.3-2.5-2.5-3.3-1.1-0.8-2.4-1.2-3.8-1.2-1.4 0-2.7 0.4-3.8 1.2-1.2 0.8-2 2-2.4 3.3l-0.5 1.3h-7.5q-0.2 0-0.4 0.1-0.2 0.1-0.3 0.2-0.2 0.2-0.3 0.3 0 0.2 0 0.4v8.6z"/>
</svg>