<svg id="Layer_1" data-name="Layer 1" xmlns="http://www.w3.org/2000/svg" viewBox="0 0 145.63 130.77" style="height: 30px; width: 30px;">
<defs><style>.cls-1{fill:#b3b3b3;}</style></defs>
<path class="cls-1" d="M58.09,60.56H92.3v3.87H58.09Zm0,17H79v3.86H58.09Z"/>
<path class="cls-1" d="M99.84,102.37H50.49a7.82,7.82,0,0,1-3-.58,6.73,6.73,0,0,1-2.38-1.61,7.48,7.48,0,0,1-1.61-2.38,7.82,7.82,0,0,1-.58-3V43.49a7.73,7.73,0,0,1,.58-3,6.82,6.82,0,0,1,1.61-2.39,7.48,7.48,0,0,1,2.38-1.61,8,8,0,0,1,3-.58H58v3.8H50.49a3.81,3.81,0,0,0-3.8,3.8V94.9a3.8,3.8,0,0,0,3.8,3.8H99.77a3.81,3.81,0,0,0,3.8-3.8V43.49a3.8,3.8,0,0,0-3.8-3.8H92.36v-3.8h7.48a7.77,7.77,0,0,1,3,.58,6.65,6.65,0,0,1,2.38,1.61,7.32,7.32,0,0,1,1.61,2.38,7.78,7.78,0,0,1,.58,3V94.77a7.73,7.73,0,0,1-.58,3,6.69,6.69,0,0,1-1.61,2.39,7.48,7.48,0,0,1-2.38,1.61,6.84,6.84,0,0,1-3,.64Z"/><path class="cls-1" d="M94.1,47.29H56.22V34.92A4.76,4.76,0,0,1,61,30.15h4.9a10.48,10.48,0,0,1,18.68,0h4.89a4.76,4.76,0,0,1,4.77,4.77ZM60,43.49H90.37V34.92a1,1,0,0,0-1-1H81.86l-.45-1.29a6.61,6.61,0,0,0-12.5,0L68.46,34H60.92a1,1,0,0,0-1,1v8.57Z"/></svg>