<svg version="1.2" xmlns="http://www.w3.org/2000/svg" viewBox="0 0 93 91" width="93" height="91">
	<title>Return-svg</title>
	<style>
		.s0 { fill: #ffffff;stroke: #000000;stroke-linecap: round;stroke-miterlimit:50;stroke-width: 6 } 
	</style>
	<path id="Layer" fill-rule="evenodd" class="s0" d="m77.8 38.7c1.6 6.6 0.9 13.7-1.8 19.9-2.8 6.3-7.5 11.5-13.4 14.9-6 3.4-12.9 4.8-19.7 3.9-6.8-0.8-13.1-3.9-18.1-8.7"/>
	<path id="Layer" fill-rule="evenodd" class="s0" d="m15.9 52.8q-0.2-0.9-0.4-1.7-0.1-0.9-0.2-1.7-0.1-0.8-0.1-1.7-0.1-0.8-0.1-1.7c0-6.2 1.9-12.3 5.3-17.5 3.4-5.2 8.3-9.3 14.1-11.8 5.7-2.4 12-3.1 18.1-2 6.2 1.2 11.8 4.1 16.3 8.4"/>
	<path id="Layer" class="s0" d="m54.7 24.5l14.7-1.1-1.2-13.8"/>
	<path id="Layer" class="s0" d="m38.7 67.1l-14.7 1 1.1 13.8"/>
</svg>