<svg width="70" height="66" viewBox="0 0 70 66" fill="none" xmlns="http://www.w3.org/2000/svg">
<path d="M34 20C39.5228 20 44.0001 15.5228 44.0001 10C44.0001 4.47715 39.5228 0 34 0C28.4772 0 24 4.47715 24 10C24 15.5228 28.4772 20 34 20Z" fill="#F47B21"/>
<path d="M45.5 37.998L30.8877 23.398C30.8877 23.398 26.4877 18.398 22.3877 16.198C19.0877 14.498 12.7877 11.898 4.18765 19.498C-3.01234 26.998 0.947792 37.0977 2.38767 39.098C4.18722 41.5977 14.9876 51.998 14.9876 51.998L22.3877 58.998L23.7876 57.598C23.7876 57.598 19.2876 53.5977 18.3877 51.598C18.0445 50.8354 17.4877 49.298 17.3877 48.198C17.2877 46.398 17.6876 44.298 19.2876 41.898C19.9876 40.898 20.7876 39.898 21.7876 39.098C23.0876 37.998 23.8877 37.598 23.8877 37.598C23.8877 37.598 28 34.4 31.5 36C32.1 36.2 33.4343 36.698 34.6343 37.598C35.5 38.5 35.4 38.7 37 39.5C38.6 40.3 45 41.898 45.5 37.998Z" fill="#6D6E70"/>
<path d="M40.9072 43.2854C40.5176 43.3807 40.3803 43.8713 40.6711 44.1475L51.6313 54.5597C51.8291 54.7476 52.1409 54.7423 52.3321 54.5479L64.0738 42.612C64.083 42.6027 64.0836 42.6015 64.0934 42.5929C64.4046 42.3188 76.9091 31.1546 64.1148 18.4253C64.0972 18.4078 64.0805 18.393 64.0605 18.3783C62.4929 17.2213 54.4484 10.7298 45.6875 16.0981C42.948 17.9028 37.9001 22.6625 36.5353 23.9646C36.3393 24.1517 36.3333 24.4572 36.5163 24.657L48.128 37.3332C48.1659 37.3746 48.2123 37.4156 48.2415 37.4635C48.5428 37.9583 49.616 41.1557 40.9072 43.2854Z" fill="#AF1320"/>
<path d="M30.9892 62.1244L25.167 56.6852L38.2423 42.6894L44.5123 48.5471C47.8713 51.6851 48.0481 56.8828 44.91 60.2418L43.5502 61.6973C40.2029 65.2802 34.5721 65.4717 30.9892 62.1244Z" fill="#062F70"/>
<path d="M35.768 40.0636L38.011 42.2639L24.7229 56.3753L21.9238 53.7603C18.5648 50.6222 18.4963 45.421 21.6343 42.062L23.2034 40.3825C26.5506 36.7996 32.1814 36.6081 35.768 40.0636Z" fill="#083272"/>
<path d="M28.6479 46.5995C28.9765 46.2513 28.5725 45.3365 27.7456 44.5563C26.9187 43.776 25.9819 43.4258 25.6534 43.774C25.3249 44.1222 25.7289 45.037 26.5559 45.8172C27.3828 46.5974 28.3194 46.9476 28.6479 46.5995Z" fill="white"/>
<path d="M22.1007 43.0218C22.1007 43.0218 19.2765 46.0449 20.9213 49.7833C21.0296 49.7797 19.9372 46.3476 22.3173 43.0144L22.1007 43.0218Z" fill="white"/>
</svg>
