<svg id="Layer_1" data-name="Layer 1" xmlns="http://www.w3.org/2000/svg" 
viewBox="0 0 145.63 130.77" >
<path class="cls-1" d="M102.27,49.13H43.34a3.16,3.16,0,0,0-3.15,3.16h0v32a3.16,3.16,0,0,0,3.15,3.16h58.93a3.17,3.17,0,0,0,3.16-3.16h0v-32a3.17,3.17,0,0,0-3.16-3.16Zm-3.16,32H46.5V55.45H99.11Zm32.65-21.49a3.16,3.16,0,0,0,3.15-3.16h0v-21a3.16,3.16,0,0,0-3.15-3.16H13.87a3.16,3.16,0,0,0-3.15,3.16h0v21a3.16,3.16,0,0,0,3.15,3.16h0a9.47,9.47,0,1,1,0,18.94h0a3.16,3.16,0,0,0-3.15,3.16h0v21A3.16,3.16,0,0,0,13.87,106H131.76a3.16,3.16,0,0,0,3.15-3.16h0v-21a3.16,3.16,0,0,0-3.15-3.16h0a9.47,9.47,0,1,1,0-18.94ZM128.6,84.6V99.65H17V84.6a15.79,15.79,0,0,0,.11-30.92l-.11,0v-15H128.6v15a15.79,15.79,0,0,0-.1,30.92Z"/></svg>