<svg id="Layer_1" data-name="Layer 1" xmlns="http://www.w3.org/2000/svg" viewBox="0 0 792 612"><defs><style>.cls-1{fill:#e8505b;}.cls-2{opacity:0.4;}.cls-3{fill:#af1320;}.cls-4{opacity:0.5;}.cls-5{fill:#062f70;}.cls-6{fill:#fafafa;}.cls-7{fill:#f57b20;}</style></defs><path class="cls-1" d="M476.66,346.73H452v-134a57.21,57.21,0,0,0-114.41,0v134H313v-134a81.83,81.83,0,0,1,163.66,0v134Z"/><g class="cls-2"><path d="M476.66,346.73H452v-134a57.21,57.21,0,0,0-114.41,0v134H313v-134a81.83,81.83,0,0,1,163.66,0v134Z"/></g><path class="cls-3" d="M493.65,428.62H296a11.45,11.45,0,0,1-11.44-11.45V298.57A11.45,11.45,0,0,1,296,287.12H493.65a11.45,11.45,0,0,1,11.45,11.45v118.6A11.45,11.45,0,0,1,493.65,428.62Z"/><g class="cls-4"><path class="cls-5" d="M413.26,339.44a18.43,18.43,0,1,0-23.46,17.65v27.56h10.06V357.09A18.38,18.38,0,0,0,413.26,339.44Z"/></g><path class="cls-6" d="M296.32,415.2c-.51,0-.92-23.6-.92-52.7s.41-52.7.92-52.7.91,23.59.91,52.7S296.82,415.2,296.32,415.2Z"/><path class="cls-6" d="M380.39,363.07c-.05.09-.86-.29-2.16-1.23a22.42,22.42,0,0,1-4.75-4.84,25.84,25.84,0,0,1,9.18-38.77,22.22,22.22,0,0,1,6.42-2.19,5.6,5.6,0,0,1,2.48-.13c.08.35-3.5.68-8.28,3.46a25.54,25.54,0,0,0-8.73,36.89C377.57,360.89,380.62,362.79,380.39,363.07Z"/><path class="cls-7" d="M560.48,491.68s.53-.74,1.6-2.14l.89-1.18c.31-.45.58-1,.91-1.56a23.83,23.83,0,0,0,2-4.05c.32-.79.69-1.63,1-2.53s.53-1.9.81-2.92a20.09,20.09,0,0,0,.67-3.25,35.29,35.29,0,0,0,.5-3.59,67.72,67.72,0,0,0-.79-17.28c-2-12.92-7.48-28.15-15.87-44.69s-19.91-34.42-34.08-53a542.41,542.41,0,0,0-50.82-57.09,622.63,622.63,0,0,0-66.72-56.95c-12.46-9.15-25.6-18-39.45-26.4a381.25,381.25,0,0,0-43.81-23c-15.38-6.69-31.62-12.52-48.74-15.28-8.53-1.31-17.34-2-26-.64a48.64,48.64,0,0,0-12.56,3.64,31.32,31.32,0,0,0-17,19,48.63,48.63,0,0,0-2.19,12.89c-.33,8.75,1.31,17.43,3.58,25.76,4.69,16.7,12.33,32.18,20.73,46.7A380.43,380.43,0,0,0,263,325.12c9.89,12.82,20.21,24.86,30.72,36.19a621.24,621.24,0,0,0,64.18,59.82,542.79,542.79,0,0,0,62.5,44c20.08,12,39.11,21.39,56.54,27.83s33.13,10.17,46.2,10.68a68,68,0,0,0,17.26-1.18c1.24-.18,2.37-.63,3.5-.9a21.15,21.15,0,0,0,3.15-1l2.82-1.14c.86-.42,1.64-.89,2.39-1.29a24.32,24.32,0,0,0,3.8-2.47c.52-.39,1-.73,1.44-1.08l1.07-1c1.27-1.22,1.94-1.83,1.94-1.83s-.62.66-1.87,1.91l-1.06,1c-.41.37-.91.7-1.43,1.11a24.16,24.16,0,0,1-3.79,2.52c-.75.42-1.54.9-2.4,1.33l-2.82,1.16a20.32,20.32,0,0,1-3.17,1.07,33.83,33.83,0,0,1-3.51.93A67.86,67.86,0,0,1,523.09,504c-13.13-.45-28.94-4.12-46.39-10.53S440.13,477.7,420,465.75a539.63,539.63,0,0,1-62.66-43.95A622.33,622.33,0,0,1,293,362c-10.54-11.35-20.88-23.41-30.8-36.24a380.31,380.31,0,0,1-27.9-41c-8.43-14.58-16.11-30.1-20.84-46.94-2.3-8.4-4-17.16-3.63-26.07a50,50,0,0,1,2.25-13.18,32.27,32.27,0,0,1,17.55-19.65,50.19,50.19,0,0,1,12.84-3.72c8.81-1.33,17.7-.68,26.31.64,17.25,2.79,33.55,8.65,49,15.37a380.74,380.74,0,0,1,43.91,23.05c13.87,8.39,27,17.3,39.49,26.47a621,621,0,0,1,66.76,57.11,540.56,540.56,0,0,1,50.8,57.25c14.16,18.65,25.67,36.54,34,53.19s13.81,31.89,15.75,44.89a67.13,67.13,0,0,1,.7,17.37,32.8,32.8,0,0,1-.52,3.6,21.46,21.46,0,0,1-.7,3.27c-.29,1-.57,2-.84,2.93s-.71,1.74-1,2.54a23,23,0,0,1-2.08,4.05c-.34.56-.61,1.1-.93,1.55l-.92,1.17C561.06,491,560.48,491.68,560.48,491.68Z"/><path class="cls-7" d="M623.55,339.46s-.1-.91-.24-2.66c0-.45-.07-.94-.12-1.48s-.23-1.13-.36-1.77a24,24,0,0,0-1.18-4.36c-.3-.81-.57-1.68-.93-2.57l-1.35-2.71a19.73,19.73,0,0,0-1.66-2.88,34.26,34.26,0,0,0-2-3,68,68,0,0,0-12.1-12.37c-10.09-8.31-24.31-16-41.59-22.78S524.24,270.44,501.29,266a541.22,541.22,0,0,0-75.92-8.77,621.8,621.8,0,0,0-87.7,1.91c-15.39,1.46-31.11,3.58-47,6.56a381.22,381.22,0,0,0-48,12c-15.94,5.25-31.93,11.71-46.55,21-7.24,4.7-14.23,10.08-19.82,16.82a48.6,48.6,0,0,0-6.95,11.08,31.23,31.23,0,0,0,0,25.54,48.78,48.78,0,0,0,6.94,11.08c5.58,6.75,12.58,12.14,19.82,16.84,14.62,9.34,30.62,15.8,46.56,21.05a379.71,379.71,0,0,0,48,12c15.91,3,31.63,5.1,47,6.56a621.94,621.94,0,0,0,87.71,1.91,542.54,542.54,0,0,0,75.92-8.77c22.95-4.44,43.43-10.07,60.72-16.87s31.49-14.47,41.59-22.78a68.3,68.3,0,0,0,12.09-12.37,34.26,34.26,0,0,0,2-3,18.86,18.86,0,0,0,1.66-2.88l1.35-2.71c.36-.89.63-1.76.93-2.56a24.26,24.26,0,0,0,1.18-4.37c.13-.64.29-1.22.36-1.77s.08-1,.12-1.47c.14-1.76.24-2.66.24-2.66s0,.9-.14,2.66c0,.45,0,.94-.09,1.49s-.21,1.13-.33,1.77a24,24,0,0,1-1.14,4.41c-.29.81-.56,1.69-.92,2.58s-.86,1.79-1.33,2.75A20.35,20.35,0,0,1,618,358a35.24,35.24,0,0,1-2,3,67.69,67.69,0,0,1-12.09,12.5c-10.1,8.4-24.34,16.18-41.63,23s-37.81,12.56-60.79,17.05a541.47,541.47,0,0,1-76,8.91,621.77,621.77,0,0,1-87.84-1.82c-15.41-1.45-31.16-3.56-47.1-6.54a380.86,380.86,0,0,1-48.13-12c-16-5.27-32.06-11.74-46.79-21.15-7.31-4.74-14.38-10.18-20.06-17.05a49.54,49.54,0,0,1-7.1-11.33,32.29,32.29,0,0,1,0-26.35,49.48,49.48,0,0,1,7.1-11.32c5.69-6.86,12.76-12.3,20.06-17,14.74-9.41,30.8-15.88,46.79-21.14a380.15,380.15,0,0,1,48.11-12c15.94-3,31.69-5.09,47.1-6.54a621.63,621.63,0,0,1,87.83-1.82,540.17,540.17,0,0,1,76,8.91c23,4.49,43.48,10.18,60.79,17s31.53,14.61,41.63,23a67.66,67.66,0,0,1,12.09,12.49,36.17,36.17,0,0,1,2,3,20.44,20.44,0,0,1,1.65,2.91l1.33,2.74c.36.9.63,1.78.92,2.59a24,24,0,0,1,1.14,4.41c.12.64.27,1.23.34,1.77s.06,1,.09,1.49C623.52,338.55,623.55,339.46,623.55,339.46Z"/><path class="cls-7" d="M540,150s-.78-.47-2.25-1.44l-1.24-.81c-.47-.27-1-.51-1.61-.8a24.63,24.63,0,0,0-4.18-1.74c-.82-.26-1.67-.58-2.6-.84l-3-.6a21.07,21.07,0,0,0-3.29-.44,34.48,34.48,0,0,0-3.61-.25,67.11,67.11,0,0,0-17.19,2c-12.75,2.88-27.56,9.4-43.49,18.91s-33,22.23-50.53,37.65a543.26,543.26,0,0,0-53.45,54.63,622.29,622.29,0,0,0-52.22,70.49c-8.27,13.05-16.22,26.77-23.61,41.16a381.41,381.41,0,0,0-19.9,45.29C252.24,429,247.54,445.56,246,462.83c-.73,8.61-.76,17.43,1.15,26a48.45,48.45,0,0,0,4.49,12.27,35.43,35.43,0,0,0,8.41,10,35.8,35.8,0,0,0,11.76,5.68,49.2,49.2,0,0,0,13,1.3c8.75-.27,17.29-2.51,25.45-5.35,16.34-5.83,31.25-14.51,45.16-23.89a379.19,379.19,0,0,0,38.91-30.57c12.1-10.74,23.4-21.86,34-33.13A623.27,623.27,0,0,0,483.56,357a541.13,541.13,0,0,0,39.58-65.39c10.56-20.85,18.65-40.49,23.87-58.31s7.86-33.76,7.47-46.83a67.83,67.83,0,0,0-2.37-17.14,32.06,32.06,0,0,0-1.14-3.43,19.42,19.42,0,0,0-1.25-3.08c-.46-.95-.91-1.86-1.32-2.72s-1-1.58-1.46-2.31a24.37,24.37,0,0,0-2.73-3.61c-.42-.49-.79-1-1.17-1.37l-1.1-1c-1.3-1.19-2-1.82-2-1.82s.69.58,2,1.74l1.11,1c.39.39.77.87,1.2,1.36a23.75,23.75,0,0,1,2.78,3.6c.47.73,1,1.47,1.49,2.31l1.35,2.73a20.05,20.05,0,0,1,1.29,3.08c.36,1.11.89,2.21,1.17,3.45a67.53,67.53,0,0,1,2.47,17.2c.45,13.13-2.12,29.16-7.32,47S534.32,271,523.79,291.9a540.33,540.33,0,0,1-39.53,65.54A620.13,620.13,0,0,1,429,425.75c-10.59,11.3-21.91,22.45-34,33.22a380.25,380.25,0,0,1-39,30.67c-14,9.41-28.92,18.14-45.39,24-8.22,2.87-16.85,5.13-25.76,5.41a49.88,49.88,0,0,1-13.31-1.33,32.34,32.34,0,0,1-20.81-16.16A49.54,49.54,0,0,1,246.12,489c-1.94-8.7-1.9-17.61-1.17-26.29,1.59-17.41,6.32-34.07,11.95-49.93a382,382,0,0,1,20-45.4c7.41-14.41,15.39-28.15,23.69-41.22a618.37,618.37,0,0,1,52.37-70.53A540.75,540.75,0,0,1,406.55,201c17.63-15.4,34.69-28.12,50.72-37.6s30.87-16,43.7-18.8a67.39,67.39,0,0,1,17.28-1.9c1.26,0,2.47.2,3.63.27a21.26,21.26,0,0,1,3.31.48l3,.63c.93.27,1.79.59,2.61.86a24.46,24.46,0,0,1,4.18,1.8c.58.3,1.14.54,1.61.82l1.23.84C539.26,149.43,540,150,540,150Z"/><path class="cls-7" d="M163.62,433.85a8.49,8.49,0,1,1-12,0A8.49,8.49,0,0,1,163.62,433.85Z"/><path class="cls-7" d="M642.88,170.64a8.5,8.5,0,1,1-8.5-8.49A8.5,8.5,0,0,1,642.88,170.64Z"/><path class="cls-7" d="M217.27,461.78a2.16,2.16,0,1,1-2.16-2.16A2.16,2.16,0,0,1,217.27,461.78Z"/><path class="cls-7" d="M263.34,223.76a2.16,2.16,0,1,1-2.16-2.16A2.16,2.16,0,0,1,263.34,223.76Z"/><path class="cls-7" d="M600.21,339.46a2.16,2.16,0,1,1-2.16-2.16A2.16,2.16,0,0,1,600.21,339.46Z"/><path class="cls-7" d="M630.21,238.82a2.16,2.16,0,1,1-2.16-2.16A2.16,2.16,0,0,1,630.21,238.82Z"/></svg>