<svg id="Layer_1" data-name="Layer 1" xmlns="http://www.w3.org/2000/svg" viewBox="0 0 761.36 581.74"><defs><style>.cls-1{fill:#ebebeb;}.cls-2{fill:#e0e0e0;}.cls-3{fill:#f5f5f5;}.cls-4{fill:#fff;}.cls-5{fill:#263238;}.cls-6{fill:#f57b20;}.cls-7{fill:#af1320;}.cls-8{fill:#ffbf9d;}.cls-9{fill:#ff9a6c;}.cls-10{fill:#455a64;}.cls-11{fill:#f47b21;}.cls-12{opacity:0.3;}</style></defs><g id="Background_Complete" data-name="Background Complete"><path class="cls-1" d="M479.74,302.25l-123-1.17-37.28-.17-10.14,0-2.63,0a6.13,6.13,0,0,0-.9.05,5.12,5.12,0,0,0,.9.06l2.63.06,10.14.13,37.28.2,123,.07c48,0,91.5.06,123,.29,15.74.11,28.47.26,37.28.43,4.4.08,7.82.17,10.13.26a20,20,0,0,1,3.54.26,18.78,18.78,0,0,1-3.54.23c-2.32.06-5.74.12-10.14.16-8.8.08-21.54.09-37.28,0C571.23,303.12,527.75,302.74,479.74,302.25Z"/><path class="cls-1" d="M478.78,312.94l-121.34-20L320.64,287l-10-1.53-2.61-.37a5.44,5.44,0,0,0-.9-.08,8.33,8.33,0,0,0,.88.19l2.59.47,10,1.68,36.79,5.91L478.9,312.23c47.43,7.35,90.38,14.07,121.44,19.12,15.53,2.52,28.09,4.62,36.76,6.14,4.33.76,7.69,1.37,10,1.81a18.18,18.18,0,0,1,3.44.81,17.83,17.83,0,0,1-3.52-.31c-2.3-.29-5.69-.76-10-1.4-8.71-1.27-21.29-3.2-36.83-5.66C569,327.83,526.13,320.79,478.78,312.94Z"/><path class="cls-1" d="M476.14,323.35,359.51,284.73,324.1,273.21l-9.65-3.07-2.52-.76a5.06,5.06,0,0,0-.87-.23,5.57,5.57,0,0,0,.84.33l2.49.87,9.59,3.21,35.4,11.56,117,37.55c45.67,14.62,87,27.92,116.87,37.73,14.93,4.91,27,8.93,35.32,11.77,4.16,1.43,7.38,2.55,9.55,3.35a18.44,18.44,0,0,1,3.28,1.33A18.66,18.66,0,0,1,638,376c-2.22-.65-5.49-1.64-9.69-2.94-8.4-2.61-20.52-6.47-35.47-11.31C562.88,352.07,521.64,338.46,476.14,323.35Z"/><path class="cls-1" d="M471.87,333.21,362.85,277l-33.13-16.87-9-4.53-2.36-1.15a8.09,8.09,0,0,0-.82-.36,4.2,4.2,0,0,0,.77.46l2.32,1.24,9,4.66,33.11,16.9L472.2,332.58C515,354.11,553.66,373.66,581.59,388c14,7.16,25.24,13,33,17.1,3.88,2.05,6.89,3.66,8.91,4.78a18.32,18.32,0,0,1,3,1.82,18.18,18.18,0,0,1-3.25-1.38c-2.1-1-5.17-2.47-9.11-4.41-7.87-3.87-19.23-9.57-33.22-16.67C553,375,514.4,355.19,471.87,333.21Z"/><path class="cls-1" d="M466.08,342.29,367.31,270l-30-21.78-8.21-5.86-2.15-1.5a6.58,6.58,0,0,0-.76-.48,4.66,4.66,0,0,0,.69.57l2.09,1.58,8.12,6,30,21.79,99.43,71.45c38.83,27.86,74,53.14,99.26,71.59,12.66,9.23,22.87,16.74,29.89,22,3.51,2.63,6.22,4.68,8,6.1a18.61,18.61,0,0,1,2.7,2.27,18.19,18.19,0,0,1-3-1.87c-1.91-1.29-4.71-3.23-8.29-5.75-7.17-5-17.48-12.42-30.18-21.6C539.53,396.09,504.61,370.55,466.08,342.29Z"/><path class="cls-1" d="M458.93,350.37l-86.16-86.61-26.24-26.12c-3.1-3-5.52-5.41-7.18-7l-1.9-1.81a3.88,3.88,0,0,0-.67-.59,5.75,5.75,0,0,0,.6.66c.43.45,1,1.08,1.82,1.89l7.07,7.15L372.49,264l86.95,85.83c34,33.48,64.67,63.84,86.77,85.95,11,11.05,19.95,20,26.06,26.3,3.05,3.12,5.4,5.57,7,7.25a17.68,17.68,0,0,1,2.3,2.65,18.14,18.14,0,0,1-2.66-2.3c-1.69-1.57-4.15-3.92-7.29-7-6.28-6.08-15.3-14.95-26.4-26C523,414.78,492.53,384.2,458.93,350.37Z"/><path class="cls-1" d="M450.6,357.25l-71.45-98.77-21.8-29.83-6-8.06-1.58-2.08a5.62,5.62,0,0,0-.57-.69,4,4,0,0,0,.48.75c.35.51.85,1.22,1.5,2.14l5.86,8.16c5.16,7.07,12.59,17.26,21.78,29.84l72.35,98.12c28.27,38.28,53.82,73,72.16,98.21,9.17,12.61,16.55,22.86,21.59,30,2.52,3.56,4.46,6.34,5.75,8.24a18.27,18.27,0,0,1,1.86,3,18.23,18.23,0,0,1-2.27-2.68c-1.42-1.81-3.47-4.5-6.1-8-5.25-7-12.76-17.11-22-29.69C503.73,430.71,478.45,395.82,450.6,357.25Z"/><path class="cls-1" d="M441.27,362.77l-54.9-108.58c-7.09-13.84-12.82-25-16.81-32.82-2-3.84-3.56-6.82-4.63-8.89l-1.24-2.3a4.79,4.79,0,0,0-.45-.76,4.71,4.71,0,0,0,.35.81c.28.56.65,1.34,1.15,2.35l4.49,9c4,7.78,9.7,19,16.78,32.83l55.91,108.07c21.86,42.17,41.59,80.38,55.7,108.13,7.06,13.87,12.72,25.12,16.57,32.93,1.93,3.91,3.41,6.95,4.38,9a17.73,17.73,0,0,1,1.36,3.23,19.11,19.11,0,0,1-1.81-3c-1.12-2-2.72-5-4.76-8.83-4.08-7.7-9.89-18.87-17-32.72C482.11,443.52,462.67,405.16,441.27,362.77Z"/><path class="cls-1" d="M431.19,366.77,394.29,251l-11.36-35c-1.36-4.1-2.42-7.29-3.16-9.49-.37-1.06-.65-1.88-.85-2.47a4.67,4.67,0,0,0-.33-.82,5.92,5.92,0,0,0,.22.86c.18.59.43,1.42.76,2.49.69,2.22,1.7,5.42,3,9.55,2.69,8.3,6.56,20.25,11.33,35l38,115.41c14.86,45,28.25,85.82,37.76,115.41,4.76,14.8,8.55,26.79,11.11,35.1,1.28,4.15,2.25,7.39,2.88,9.59a17.07,17.07,0,0,1,.83,3.39,18.84,18.84,0,0,1-1.32-3.24c-.78-2.15-1.89-5.34-3.29-9.46-2.8-8.23-6.75-20.17-11.58-35C458.63,452.85,445.56,412,431.19,366.77Z"/><path class="cls-1" d="M420.59,369.16c-7-46.86-13.37-89.28-18-120-2.37-15.33-4.29-27.73-5.63-36.35l-1.6-9.87c-.19-1.1-.34-1.95-.45-2.56a5.23,5.23,0,0,0-.19-.86,5.29,5.29,0,0,0,.08.88c.08.61.2,1.47.35,2.58.33,2.29.82,5.62,1.45,9.89,1.33,8.62,3.24,21,5.6,36.35,4.89,30.7,11.63,73.05,19.09,119.86s14.2,89.14,18.87,119.84c2.34,15.35,4.17,27.78,5.37,36.38.6,4.3,1,7.64,1.32,9.91a18.52,18.52,0,0,1,.28,3.49,17.45,17.45,0,0,1-.79-3.41c-.42-2.25-1-5.57-1.73-9.85-1.46-8.57-3.46-21-5.86-36.31C434,458.43,427.57,416,420.59,369.16Z"/><path class="cls-1" d="M409.74,369.89c.43-47.37.82-90.24,1.11-121.32.06-15.5.12-28,.15-36.77,0-4.31,0-7.67,0-10,0-1.12,0-2,0-2.6a7.54,7.54,0,0,0,0-.89,5.06,5.06,0,0,0-.06.89c0,.61,0,1.48-.06,2.6,0,2.31-.07,5.67-.12,10,0,8.72-.11,21.27-.18,36.77,0,31.07,0,73.95,0,121.32s0,90.24-.21,121.28c-.11,15.52-.25,28.08-.41,36.76-.08,4.34-.17,7.71-.26,10a19.37,19.37,0,0,1-.26,3.48,17.51,17.51,0,0,1-.24-3.48c-.07-2.29-.12-5.66-.16-10-.09-8.68-.12-21.25-.08-36.77C408.91,460.12,409.27,417.24,409.74,369.89Z"/><path class="cls-1" d="M398.9,369c7.89-46.73,15-89,20.22-119.67,2.5-15.31,4.53-27.7,5.94-36.3.67-4.27,1.19-7.59,1.54-9.88.16-1.11.29-2,.38-2.57a5.3,5.3,0,0,0,.08-.89,7.67,7.67,0,0,0-.19.87c-.12.61-.27,1.46-.48,2.56l-1.69,9.85c-1.42,8.6-3.46,21-6,36.29-4.89,30.7-11.64,73.06-19.11,119.86S385.4,458.21,380.3,488.84c-2.55,15.32-4.67,27.7-6.2,36.25-.76,4.28-1.38,7.6-1.83,9.84a17.57,17.57,0,0,1-.82,3.4,19.2,19.2,0,0,1,.32-3.48c.29-2.27.77-5.61,1.41-9.9,1.28-8.59,3.23-21,5.72-36.33C383.86,458,391,415.66,398.9,369Z"/><path class="cls-1" d="M388.34,366.35l39.08-115,11.67-34.92,3.1-9.52c.33-1.07.59-1.89.77-2.48a4.86,4.86,0,0,0,.23-.86,5.09,5.09,0,0,0-.33.83l-.88,2.45c-.75,2.2-1.85,5.38-3.25,9.47L427,251.19c-9.74,29.55-23.17,70.33-38,115.39s-28.26,85.82-38.19,115.28c-5,14.73-9,26.63-11.91,34.84-1.44,4.1-2.58,7.28-3.39,9.43a17.6,17.6,0,0,1-1.35,3.23,18.35,18.35,0,0,1,.87-3.39c.65-2.2,1.65-5.42,3-9.56,2.63-8.29,6.54-20.24,11.44-35C359.27,451.91,373.05,411.24,388.34,366.35Z"/><path class="cls-1" d="M378.34,362.15c22.23-42,42.36-80,56.94-107.55l17.1-32.67L457,213l1.16-2.33a6.39,6.39,0,0,0,.37-.82,5.13,5.13,0,0,0-.47.77c-.29.54-.71,1.3-1.25,2.28l-4.72,8.85-17.12,32.66L379,362.47c-21.81,42.19-41.61,80.37-56.12,107.92-7.25,13.78-13.17,24.9-17.32,32.56-2.07,3.82-3.71,6.79-4.84,8.78a17,17,0,0,1-1.85,3,19.47,19.47,0,0,1,1.4-3.21c1-2.06,2.5-5.09,4.46-9,3.93-7.77,9.7-19,16.89-32.77C336,442.13,356.08,404.11,378.34,362.15Z"/><path class="cls-1" d="M369.13,356.45,442.42,259l22.06-29.63,5.94-8.11c.66-.91,1.16-1.62,1.52-2.12a4.58,4.58,0,0,0,.49-.75,6.46,6.46,0,0,0-.58.68l-1.6,2.07-6.06,8L442.1,258.77l-72.39,98.1c-28.22,38.31-53.83,73-72.53,97.94-9.34,12.49-17,22.56-22.27,29.49-2.66,3.46-4.74,6.13-6.17,7.93a18.84,18.84,0,0,1-2.3,2.66,18.13,18.13,0,0,1,1.89-3c1.31-1.89,3.27-4.65,5.83-8.18,5.11-7.07,12.58-17.24,21.88-29.77C314.62,428.92,340.49,394.46,369.13,356.45Z"/><path class="cls-1" d="M360.93,349.4l87.77-85,26.47-25.89,7.15-7.09c.79-.8,1.4-1.42,1.83-1.87a4.11,4.11,0,0,0,.6-.66,7.33,7.33,0,0,0-.68.59l-1.9,1.79-7.26,7-26.49,25.87-87,85.8c-33.92,33.52-64.69,63.82-87.1,85.62-11.2,10.9-20.3,19.69-26.64,25.71-3.17,3-5.65,5.34-7.35,6.89a19.59,19.59,0,0,1-2.69,2.28,18,18,0,0,1,2.33-2.63c1.59-1.67,4-4.09,7-7.19,6.16-6.2,15.15-15.1,26.31-26C295.66,412.63,326.65,382.56,360.93,349.4Z"/><path class="cls-1" d="M354,341.19l100.11-70.52,30.23-21.52,8.18-5.91,2.1-1.56a7.61,7.61,0,0,0,.7-.56,4.45,4.45,0,0,0-.76.47l-2.17,1.48-8.27,5.79-30.24,21.49-99.46,71.42c-38.79,27.9-74,53.12-99.54,71.22-12.78,9.05-23.16,16.33-30.38,21.31-3.6,2.49-6.42,4.4-8.35,5.67a17.94,17.94,0,0,1-3,1.84,18.75,18.75,0,0,1,2.72-2.24c1.83-1.4,4.56-3.43,8.1-6C231,428.37,241.25,421,254,411.85,279.49,393.64,314.85,368.68,354,341.19Z"/><path class="cls-1" d="M348.35,332l110.06-54.22,33.27-16.59,9-4.57L503,255.4a5.19,5.19,0,0,0,.78-.45,4.78,4.78,0,0,0-.83.35l-2.38,1.13-9.08,4.43-33.28,16.57L348.67,332.64c-42.74,21.58-81.47,41.06-109.6,55-14.06,7-25.47,12.56-33.39,16.36-4,1.9-7,3.36-9.14,4.32a19.63,19.63,0,0,1-3.27,1.35,18,18,0,0,1,3-1.8c2-1.1,5.05-2.68,8.95-4.7,7.8-4,19.13-9.76,33.17-16.79C266.49,372.32,305.37,353.13,348.35,332Z"/><path class="cls-1" d="M344.28,322.06c45.82-14.24,87.28-27.13,117.34-36.46l35.5-11.23,9.63-3.12,2.5-.84a5.57,5.57,0,0,0,.84-.33,7.23,7.23,0,0,0-.88.22l-2.52.75L497,274l-35.51,11.2-117,37.52c-45.65,14.68-87,27.91-117,37.31-15,4.7-27.16,8.45-35.58,11-4.22,1.26-7.49,2.22-9.72,2.84a19.57,19.57,0,0,1-3.45.83,18.08,18.08,0,0,1,3.29-1.31c2.18-.77,5.42-1.86,9.59-3.25,8.35-2.76,20.45-6.67,35.43-11.44C257,349.17,298.47,336.25,344.28,322.06Z"/><path class="cls-1" d="M341.85,311.61,463.54,293.8l36.86-5.57,10-1.59,2.6-.44a5.58,5.58,0,0,0,.88-.19,5.51,5.51,0,0,0-.9.08l-2.61.34-10,1.44-36.86,5.55L342,312.31c-47.43,7.42-90.38,14.06-121.51,18.69-15.56,2.31-28.17,4.13-36.89,5.32-4.36.6-7.75,1-10.05,1.3a18,18,0,0,1-3.54.28,19.31,19.31,0,0,1,3.46-.77c2.28-.42,5.65-1,10-1.72,8.68-1.44,21.26-3.42,36.81-5.8C251.34,324.84,294.34,318.52,341.85,311.61Z"/><path class="cls-1" d="M341.1,300.91l123,1,37.28.13,10.14,0,2.63,0a6.13,6.13,0,0,0,.9-.05,5.12,5.12,0,0,0-.9-.06l-2.63-.05-10.14-.12-37.28-.15-123,.07c-48,.06-91.5.05-123-.14-15.74-.09-28.48-.22-37.28-.38-4.4-.08-7.82-.16-10.13-.25a19.59,19.59,0,0,1-3.54-.25,18.11,18.11,0,0,1,3.54-.24c2.31-.06,5.73-.12,10.13-.17,8.81-.09,21.55-.12,37.29-.09C249.61,300.15,293.09,300.47,341.1,300.91Z"/><path class="cls-1" d="M342.05,290.21l121.36,19.87,36.81,5.84,10,1.51,2.61.37a5.51,5.51,0,0,0,.9.08,7.6,7.6,0,0,0-.88-.19l-2.59-.47-10-1.66-36.8-5.87L341.93,290.92c-47.44-7.29-90.4-13.95-121.46-19-15.54-2.5-28.1-4.58-36.77-6.09-4.34-.75-7.7-1.36-10-1.8a17.82,17.82,0,0,1-3.45-.8,17.91,17.91,0,0,1,3.53.31c2.3.28,5.68.75,10,1.38,8.71,1.26,21.3,3.18,36.84,5.62C251.78,275.44,294.68,282.42,342.05,290.21Z"/><path class="cls-1" d="M344.68,279.8l116.68,38.47,35.42,11.48,9.65,3.05,2.52.77a5.49,5.49,0,0,0,.87.22,5,5,0,0,0-.84-.33l-2.48-.86-9.61-3.2-35.4-11.51-117-37.41c-45.69-14.56-87-27.81-116.92-37.59-14.94-4.88-27-8.89-35.34-11.72-4.16-1.42-7.38-2.54-9.56-3.33a18.5,18.5,0,0,1-3.27-1.33,17.68,17.68,0,0,1,3.43.85c2.23.64,5.5,1.62,9.7,2.92,8.4,2.59,20.53,6.44,35.49,11.26C257.9,251.19,299.15,264.75,344.68,279.8Z"/><path class="cls-1" d="M348.93,269.94,458,326l33.14,16.84,9.05,4.51,2.36,1.15a7.52,7.52,0,0,0,.83.36,6.63,6.63,0,0,0-.78-.46l-2.32-1.23-9-4.65-33.13-16.86L348.6,270.57c-42.79-21.48-81.51-41-109.46-55.28-14-7.14-25.26-13-33-17.06-3.89-2-6.89-3.65-8.92-4.77a18.85,18.85,0,0,1-3-1.81,18.49,18.49,0,0,1,3.25,1.37c2.1,1,5.17,2.46,9.11,4.4,7.88,3.87,19.25,9.55,33.25,16.63C267.8,228.22,306.37,248,348.93,269.94Z"/><path class="cls-1" d="M354.71,260.85l98.86,72.21,30.07,21.74,8.21,5.86,2.16,1.49a4.22,4.22,0,0,0,.76.48s-.23-.2-.69-.57l-2.1-1.57-8.13-6L453.8,332.75l-99.52-71.33c-38.86-27.81-74-53-99.36-71.46C242.25,180.75,232,173.25,225,168c-3.51-2.61-6.22-4.67-8-6.08a19.07,19.07,0,0,1-2.7-2.26,18.05,18.05,0,0,1,3,1.86c1.92,1.29,4.72,3.22,8.3,5.74,7.17,5,17.49,12.4,30.2,21.56C281.19,207.14,316.15,232.63,354.71,260.85Z"/><path class="cls-1" d="M361.85,252.76c33.68,33.78,64.17,64.35,86.27,86.5l26.27,26.09,7.19,7,1.9,1.81a6.69,6.69,0,0,0,.67.59,6.24,6.24,0,0,0-.6-.67l-1.82-1.88-7.08-7.15L448.39,339l-87.06-85.73c-34-33.43-64.75-63.75-86.87-85.83-11.07-11-20-20-26.09-26.27-3.06-3.12-5.41-5.56-7-7.24a18.27,18.27,0,0,1-2.31-2.65,18.45,18.45,0,0,1,2.67,2.3c1.69,1.57,4.15,3.91,7.29,7,6.29,6.07,15.32,14.93,26.44,25.92C297.69,188.43,328.21,219,361.85,252.76Z"/><path class="cls-1" d="M370.17,245.87c27.95,38.53,53.25,73.4,71.58,98.68l21.84,29.8,6,8.06c.69.89,1.21,1.58,1.59,2.08a4.84,4.84,0,0,0,.57.68,7.23,7.23,0,0,0-.48-.75c-.36-.51-.86-1.21-1.5-2.13l-5.87-8.15-21.82-29.82-72.48-98c-28.32-38.24-53.91-72.91-72.28-98.12-9.19-12.6-16.58-22.84-21.63-29.95-2.53-3.55-4.47-6.33-5.76-8.22a17.77,17.77,0,0,1-1.87-3,19.35,19.35,0,0,1,2.28,2.68c1.42,1.81,3.48,4.5,6.1,8,5.26,7,12.79,17.1,22,29.66C316.94,172.47,342.27,207.33,370.17,245.87Z"/><path class="cls-1" d="M379.49,240.34l55,108.5c7.11,13.83,12.86,25,16.85,32.8l4.65,8.89,1.23,2.3a5.21,5.21,0,0,0,.46.76,7.53,7.53,0,0,0-.36-.81l-1.14-2.35c-1.05-2.07-2.56-5.08-4.51-8.95l-16.82-32.81-56.05-108c-21.91-42.13-41.69-80.32-55.84-108-7.08-13.86-12.75-25.11-16.62-32.91-1.93-3.9-3.41-6.94-4.38-9a17.24,17.24,0,0,1-1.37-3.22,18,18,0,0,1,1.82,3c1.12,2,2.73,5,4.77,8.82,4.09,7.69,9.92,18.86,17,32.69C338.55,159.64,358,198,379.49,240.34Z"/><path class="cls-1" d="M389.57,236.32C404,281.5,417.13,322.38,426.62,352c4.8,14.75,8.7,26.7,11.4,35,1.37,4.1,2.44,7.29,3.17,9.49.37,1.06.65,1.88.86,2.46a4.61,4.61,0,0,0,.33.83,6.35,6.35,0,0,0-.23-.86l-.75-2.49c-.7-2.21-1.72-5.42-3-9.54l-11.38-35c-9.76-29.54-23.24-70.31-38.12-115.35S360.52,150.75,351,121.17c-4.78-14.79-8.59-26.78-11.16-35.08-1.28-4.15-2.26-7.39-2.89-9.59a18.55,18.55,0,0,1-.84-3.39,17,17,0,0,1,1.32,3.24c.79,2.15,1.9,5.34,3.31,9.45,2.81,8.23,6.78,20.17,11.62,34.94C362,150.27,375.14,191.15,389.57,236.32Z"/><path class="cls-1" d="M400.16,233.92c7.08,46.86,13.49,89.26,18.13,120,2.4,15.32,4.33,27.72,5.68,36.34.7,4.26,1.24,7.57,1.62,9.86.19,1.11.34,2,.45,2.57a5.23,5.23,0,0,0,.19.86,5.29,5.29,0,0,0-.08-.88c-.09-.61-.2-1.47-.35-2.58-.34-2.29-.83-5.62-1.46-9.89-1.34-8.61-3.27-21-5.65-36.34-4.93-30.7-11.73-73-19.24-119.84s-14.32-89.12-19-119.81c-2.36-15.35-4.21-27.78-5.42-36.38-.61-4.3-1.05-7.64-1.33-9.91a17.44,17.44,0,0,1-.28-3.48,18.81,18.81,0,0,1,.78,3.41c.43,2.24,1,5.56,1.76,9.84,1.46,8.57,3.48,21,5.9,36.31C386.68,144.67,393.13,187.08,400.16,233.92Z"/><path class="cls-1" d="M411,233.18c-.37,47.37-.71,90.24-.95,121.32C410,370,410,382.55,410,391.27c0,4.31,0,7.67,0,10,0,1.12,0,2,0,2.6a8.65,8.65,0,0,0,.05.89,5.06,5.06,0,0,0,.06-.89c0-.62,0-1.48.06-2.6,0-2.32.06-5.68.11-10,0-8.72.07-21.27.13-36.77,0-31.07-.09-73.95-.15-121.32s-.11-90.24.06-121.28c.08-15.52.21-28.08.36-36.77.08-4.34.16-7.71.25-10a17.3,17.3,0,0,1,.26-3.49,18.61,18.61,0,0,1,.24,3.49c.07,2.29.13,5.66.17,10,.1,8.68.14,21.24.12,36.76C411.72,142.94,411.42,185.82,411,233.18Z"/><path class="cls-1" d="M421.86,234.1c-7.84,46.74-14.93,89-20.07,119.7-2.49,15.31-4.5,27.7-5.9,36.31-.66,4.26-1.17,7.58-1.53,9.88-.15,1.11-.28,2-.36,2.57a4.86,4.86,0,0,0-.09.89,4.78,4.78,0,0,0,.2-.87c.11-.61.27-1.46.47-2.56.39-2.29.95-5.6,1.68-9.86,1.41-8.6,3.43-21,5.93-36.3C407,323.16,413.74,280.8,421.14,234s14.09-89.16,19.16-119.8c2.52-15.32,4.63-27.71,6.15-36.26.76-4.28,1.37-7.6,1.82-9.84a17,17,0,0,1,.81-3.4,17.42,17.42,0,0,1-.31,3.48c-.29,2.27-.76,5.61-1.4,9.9-1.27,8.6-3.2,21-5.67,36.34C436.78,145.07,429.72,187.39,421.86,234.1Z"/><path class="cls-1" d="M432.42,236.69c-15.21,44.94-29,85.61-38.94,115.09-4.9,14.73-8.86,26.65-11.62,34.93-1.33,4.11-2.37,7.31-3.08,9.52-.34,1.07-.59,1.9-.78,2.49a4.19,4.19,0,0,0-.22.86,6,6,0,0,0,.33-.82c.21-.59.5-1.4.87-2.46l3.24-9.47,11.65-34.93c9.7-29.57,23.07-70.36,37.85-115.44s28.15-85.86,38-115.33c4.94-14.73,9-26.64,11.86-34.85,1.44-4.1,2.58-7.28,3.37-9.43a17.65,17.65,0,0,1,1.35-3.23,17.1,17.1,0,0,1-.86,3.39c-.65,2.19-1.64,5.42-3,9.56-2.62,8.29-6.52,20.25-11.4,35C461.38,151.09,447.65,191.78,432.42,236.69Z"/><path class="cls-1" d="M442.42,240.88,385.62,348.5l-17.05,32.69L364,390.12l-1.16,2.33a6.79,6.79,0,0,0-.37.81,4.29,4.29,0,0,0,.46-.76l1.26-2.29c1.09-2,2.67-5,4.71-8.85,4-7.75,9.87-18.9,17.07-32.68l55.81-108.13c21.75-42.21,41.51-80.41,56-108C505,118.78,510.9,107.65,515,100c2.07-3.83,3.7-6.8,4.83-8.79a17.93,17.93,0,0,1,1.84-3,17.38,17.38,0,0,1-1.39,3.21c-1,2.07-2.5,5.1-4.45,9-3.92,7.77-9.68,19-16.85,32.8C484.67,160.84,464.63,198.89,442.42,240.88Z"/><path class="cls-1" d="M451.64,246.57l-73.17,97.54-22,29.66-5.93,8.11L349,384a5.17,5.17,0,0,0-.48.74,5.89,5.89,0,0,0,.57-.68l1.6-2.07,6.06-8,22-29.65,72.27-98.19c28.17-38.35,53.74-73,72.4-98,9.33-12.5,16.93-22.59,22.23-29.52,2.66-3.46,4.74-6.14,6.17-7.94a18.49,18.49,0,0,1,2.29-2.66,18.39,18.39,0,0,1-1.88,3c-1.31,1.89-3.27,4.65-5.82,8.19-5.1,7.07-12.56,17.26-21.84,29.8C506.06,174,480.23,208.52,451.64,246.57Z"/><path class="cls-1" d="M459.85,253.6l-87.66,85.13-26.44,25.93-7.13,7.1-1.84,1.87a5.75,5.75,0,0,0-.6.66,6,6,0,0,0,.68-.59l1.9-1.79,7.25-7L372.46,339c22.25-22,53-52.37,86.88-85.91s64.6-63.9,87-85.73c11.19-10.92,20.28-19.72,26.62-25.75,3.16-3,5.64-5.34,7.34-6.89a17.56,17.56,0,0,1,2.68-2.28,17.88,17.88,0,0,1-2.33,2.63c-1.58,1.66-4,4.09-7,7.19-6.15,6.21-15.13,15.13-26.27,26.09C525,190.29,494.09,220.4,459.85,253.6Z"/><path class="cls-1" d="M466.84,261.81l-100,70.65L336.62,354l-8.17,5.92-2.11,1.57a4.34,4.34,0,0,0-.69.56,6.58,6.58,0,0,0,.76-.48l2.16-1.48,8.26-5.79,30.22-21.54,99.37-71.54c38.76-28,73.89-53.21,99.44-71.34,12.78-9.07,23.15-16.37,30.36-21.35,3.6-2.5,6.41-4.41,8.34-5.69a17.94,17.94,0,0,1,3-1.84,18.75,18.75,0,0,1-2.72,2.24c-1.83,1.41-4.56,3.44-8.09,6-7.06,5.19-17.33,12.62-30.06,21.74C541.23,209.27,505.9,234.27,466.84,261.81Z"/><path class="cls-1" d="M472.45,271l-110,54.36L329.21,342l-9,4.59-2.33,1.22a6,6,0,0,0-.78.45,6.11,6.11,0,0,0,.83-.35l2.38-1.13,9.07-4.45,33.26-16.61,109.49-55.35c42.71-21.63,81.42-41.16,109.53-55.13,14.05-7,25.45-12.6,33.36-16.41,4-1.91,7-3.37,9.14-4.33a18.56,18.56,0,0,1,3.27-1.35,19.82,19.82,0,0,1-3,1.8c-2,1.1-5,2.69-8.94,4.7-7.8,4-19.12,9.79-33.15,16.84C554.26,230.57,515.4,249.81,472.45,271Z"/><path class="cls-1" d="M476.54,280.93l-117.3,36.61-35.49,11.27-9.62,3.13-2.5.85a4.68,4.68,0,0,0-.83.32,5.81,5.81,0,0,0,.87-.22l2.52-.74,9.68-3,35.5-11.24,116.94-37.67c45.64-14.74,87-28,117-37.46,15-4.72,27.14-8.49,35.56-11,4.21-1.26,7.49-2.23,9.72-2.85a18.5,18.5,0,0,1,3.44-.83,18.28,18.28,0,0,1-3.28,1.3c-2.18.78-5.42,1.88-9.59,3.27-8.34,2.77-20.44,6.7-35.41,11.48C563.77,253.7,522.33,266.67,476.54,280.93Z"/><path class="cls-1" d="M479,291.38,357.31,309.33,320.46,315l-10,1.61-2.6.44a6,6,0,0,0-.88.19,5.51,5.51,0,0,0,.9-.08l2.61-.35,10-1.44,36.85-5.6,121.5-19.05c47.41-7.47,90.36-14.17,121.48-18.84,15.56-2.33,28.17-4.17,36.89-5.37,4.36-.6,7.75-1,10-1.31a19.76,19.76,0,0,1,3.53-.29,17.64,17.64,0,0,1-3.45.78c-2.28.43-5.65,1-10,1.74-8.68,1.44-21.26,3.44-36.81,5.84C569.47,278,526.47,284.41,479,291.38Z"/><path class="cls-2" d="M541.1,422.93a40.7,40.7,0,0,0-18.93-12.19c-5.09-1.44-12.81-2.74-20.67-.83a27.9,27.9,0,0,0-12.71,6.84c-4.2,4-7.41,9.43-9.54,16.25a3.95,3.95,0,0,0,2.71,5l13.35,3.76a4,4,0,0,0,4.69-2.21c1.77-4,6.24-10.37,16.28-7.73a12.6,12.6,0,0,1,9.57,11.06,14.17,14.17,0,0,1-4.56,12c-5.2,4.85-12,3.91-15.57,2.92a7.78,7.78,0,0,0-9.57,5.35l-4,14.37a4,4,0,0,0,2.73,4.87l13,3.67a4,4,0,0,0,4.87-2.74l.85-3a.2.2,0,0,1,.16-.13A39,39,0,0,0,530,475.34c8.41-4.68,14.11-12.17,17-22.27C551,438.63,546,428.71,541.1,422.93Z"/><path class="cls-2" d="M501,488l-1.14-.32a10.25,10.25,0,0,0-5.55,19.74l1.13.32A10.25,10.25,0,1,0,501,488Z"/><path class="cls-3" d="M569.77,343.34A20.89,20.89,0,0,0,558.48,341a21.41,21.41,0,0,0-10.05,3.39,14.36,14.36,0,0,0-4.84,5.61,19.06,19.06,0,0,0-1.59,9.52,2,2,0,0,0,.7,1.41,2,2,0,0,0,1.51.48l7.08-.65a2,2,0,0,0,1.84-1.91c.11-2.25,1.09-6.12,6.38-6.69a6.45,6.45,0,0,1,6.61,3.54,7.25,7.25,0,0,1,0,6.56c-1.6,3.28-5,4.08-6.92,4.26a4,4,0,0,0-3.6,4.31l.69,7.62a2,2,0,0,0,2.21,1.84l6.9-.63a2,2,0,0,0,1.83-2.2l-.14-1.61a.08.08,0,0,1,0-.09,20.09,20.09,0,0,0,6.9-5.25,18.1,18.1,0,0,0,4-13.77C577.39,349,573.18,345.21,569.77,343.34Z"/><path class="cls-3" d="M562.48,381.83l-.61.06a5.26,5.26,0,0,0,1,10.47l.6-.06a5.26,5.26,0,0,0-.95-10.47Z"/><path class="cls-3" d="M286.09,180.6a17.47,17.47,0,0,0-8.52-4.48,17.92,17.92,0,0,0-8.84.43,12.09,12.09,0,0,0-5.16,3.4,15.9,15.9,0,0,0-3.45,7.28,1.7,1.7,0,0,0,1.35,2l5.83,1.09a1.68,1.68,0,0,0,1.91-1.12,5.49,5.49,0,0,1,6.65-3.91,5.4,5.4,0,0,1,4.49,4.36,6,6,0,0,1-1.49,5.26c-2,2.27-5,2.12-6.52,1.83a3.33,3.33,0,0,0-3.87,2.65l-1.18,6.27a1.68,1.68,0,0,0,1.34,2l5.69,1.07a1.69,1.69,0,0,0,2-1.35l.25-1.31a.06.06,0,0,1,.06-.06,16.86,16.86,0,0,0,6.74-2.65,15.08,15.08,0,0,0,6.38-10.13C290.91,186.92,288.4,182.88,286.09,180.6Z"/><path class="cls-3" d="M271.46,209.82l-.5-.09a4.39,4.39,0,0,0-1.62,8.62l.5.09a4.39,4.39,0,1,0,1.62-8.62Z"/><path class="cls-1" d="M559.22,182.61a20.88,20.88,0,0,0-11.29-2.42,21.38,21.38,0,0,0-10.06,3.35,14.36,14.36,0,0,0-4.86,5.59,19.15,19.15,0,0,0-1.63,9.52,2,2,0,0,0,.7,1.41,2,2,0,0,0,1.5.48l7.09-.61a2,2,0,0,0,1.85-1.91c.12-2.25,1.11-6.11,6.4-6.67a6.47,6.47,0,0,1,6.6,3.58,7.25,7.25,0,0,1,0,6.56c-1.61,3.27-5,4-6.94,4.22A4,4,0,0,0,545,210l.66,7.63a2,2,0,0,0,2.2,1.84l6.9-.6a2,2,0,0,0,1.84-2.2l-.14-1.6a.09.09,0,0,1,.06-.09,20.22,20.22,0,0,0,6.92-5.23,18.12,18.12,0,0,0,4.1-13.76C566.82,188.34,562.62,184.49,559.22,182.61Z"/><path class="cls-1" d="M551.77,221.07l-.6.05a5.25,5.25,0,0,0,.91,10.47l.61-.05a5.26,5.26,0,1,0-.92-10.47Z"/><path class="cls-1" d="M346.17,413a25.3,25.3,0,0,0-13.83-2,25.73,25.73,0,0,0-11.89,4.84A17.29,17.29,0,0,0,315,423a23,23,0,0,0-1.22,11.63,2.44,2.44,0,0,0,.95,1.65,2.4,2.4,0,0,0,1.85.46l8.52-1.3A2.46,2.46,0,0,0,327.2,433c0-2.73.86-7.47,7.22-8.55a7.82,7.82,0,0,1,8.25,3.8,8.78,8.78,0,0,1,.49,7.92c-1.69,4.08-5.77,5.29-8.05,5.65a4.84,4.84,0,0,0-4,5.48l1.41,9.16a2.46,2.46,0,0,0,2.8,2.06l8.29-1.27a2.45,2.45,0,0,0,2.05-2.8l-.29-1.93a.11.11,0,0,1,.06-.11,24.37,24.37,0,0,0,7.95-6.86,22,22,0,0,0,3.87-16.94C355.8,419.37,350.43,415.05,346.17,413Z"/><path class="cls-1" d="M340.19,460.09l-.73.11a6.36,6.36,0,1,0,1.93,12.58l.72-.11a6.36,6.36,0,1,0-1.92-12.58Z"/><path class="cls-1" d="M271.52,239.7a35.51,35.51,0,0,0-19.43-2.83c-4.56.71-11.16,2.47-16.7,6.83a24.31,24.31,0,0,0-7.61,10,32.36,32.36,0,0,0-1.69,16.35,3.44,3.44,0,0,0,3.95,3l12-1.85a3.47,3.47,0,0,0,2.92-3.45c-.06-3.83,1.19-10.49,10.12-12A11,11,0,0,1,266.63,261a12.35,12.35,0,0,1,.72,11.14c-2.37,5.74-8.1,7.45-11.3,8a6.77,6.77,0,0,0-5.65,7.7l2,12.87a3.46,3.46,0,0,0,3.94,2.88l11.65-1.8a3.46,3.46,0,0,0,2.88-3.94l-.42-2.7a.15.15,0,0,1,.08-.16,34.39,34.39,0,0,0,11.16-9.66c5-6.76,6.79-14.77,5.39-23.81C285.06,248.56,277.51,242.5,271.52,239.7Z"/><path class="cls-1" d="M263.23,305.82l-1,.15A8.95,8.95,0,0,0,265,323.65l1-.16a8.94,8.94,0,1,0-2.74-17.67Z"/></g><g id="Speech_Bubble" data-name="Speech Bubble"><path class="cls-4" d="M439.93,158.2l9,1.5a34.86,34.86,0,1,0-6.16-10.85v0Z"/><path class="cls-5" d="M439.93,158.2l.16-.59c.12-.42.29-1,.52-1.79.47-1.62,1.16-4,2.05-7l.07-.21.12.18v0l-.18.09A34.66,34.66,0,0,1,441,132.16a35.58,35.58,0,0,1,3.36-10.59,34.87,34.87,0,0,1,7.64-10,35.73,35.73,0,0,1,12-7.14,34.21,34.21,0,0,1,15-1.87,35.66,35.66,0,0,1,15.19,5.16,34.18,34.18,0,0,1,11.68,12.08,35.9,35.9,0,0,1,3.43,7.94c.2.68.33,1.39.5,2.08s.36,1.38.42,2.09.17,1.4.25,2.1l.12,1,0,1.05A35.65,35.65,0,0,1,507.42,152,34,34,0,0,1,498.17,164a35.67,35.67,0,0,1-12.33,6.75,34.93,34.93,0,0,1-12.62,1.47l-2.94-.34c-1-.13-1.88-.39-2.79-.57a30.48,30.48,0,0,1-5.13-1.64,34.6,34.6,0,0,1-13.5-9.93l.07,0-6.71-1.18-1.72-.31c-.39-.07-.57-.12-.57-.12l.61.09,1.75.26,6.67,1h0l0,0a34.74,34.74,0,0,0,13.47,9.75,30.79,30.79,0,0,0,5.08,1.6c.91.18,1.82.42,2.77.55l2.9.33a34.78,34.78,0,0,0,12.47-1.5,35.32,35.32,0,0,0,12.16-6.7,33.66,33.66,0,0,0,9.1-11.93,35.11,35.11,0,0,0,3.1-15.66v-1l-.12-1c-.09-.69-.17-1.38-.25-2.07a20.89,20.89,0,0,0-.42-2.06c-.17-.68-.29-1.37-.49-2A35.3,35.3,0,0,0,505.4,120a33.86,33.86,0,0,0-11.5-11.91,35.37,35.37,0,0,0-15-5.09,33.79,33.79,0,0,0-14.76,1.82,35.36,35.36,0,0,0-11.85,7,34.77,34.77,0,0,0-7.59,9.9,35.78,35.78,0,0,0-3.36,10.47,34.74,34.74,0,0,0,1.5,16.61l.26.74-.44-.65h0l.18,0c-.93,3-1.66,5.32-2.15,6.91l-.57,1.8C440,158,439.93,158.2,439.93,158.2Z"/><path class="cls-6" d="M483,121.31a14.89,14.89,0,0,0-7.89-2.37,15.22,15.22,0,0,0-7.36,1.81,10.25,10.25,0,0,0-3.78,3.7,13.57,13.57,0,0,0-1.7,6.68,1.45,1.45,0,0,0,1.46,1.48l5.08,0a1.45,1.45,0,0,0,1.42-1.25,4.69,4.69,0,0,1,4.94-4.38,4.61,4.61,0,0,1,4.49,2.92,5.17,5.17,0,0,1-.38,4.67,5.91,5.91,0,0,1-5.19,2.61,2.86,2.86,0,0,0-2.82,2.86l0,5.46a1.45,1.45,0,0,0,1.46,1.44l4.95,0a1.46,1.46,0,0,0,1.44-1.46v-1.15a.07.07,0,0,1,0-.06,14.31,14.31,0,0,0,5.23-3.33,12.9,12.9,0,0,0,3.7-9.55A11.43,11.43,0,0,0,483,121.31Z"/><path class="cls-6" d="M475.47,148.26H475a3.76,3.76,0,0,0,.05,7.51h.44a3.76,3.76,0,1,0,0-7.51Z"/></g><g id="Character"><path class="cls-7" d="M489.26,203.28c-23.61-15.88-51.68-21.54-70.08-21.54-17.23,0-42.59,2.72-65.54,15.67a90.86,90.86,0,0,0-33.81,32.65c-9.68,16.13-14.92,36.1-15.58,59.35a12.88,12.88,0,0,0,12.88,13.2h45.18a13,13,0,0,0,12.75-11.07c2-14.16,10.41-38,44.22-38.6,25.76-.45,36.38,18.2,39.76,26.24,5.49,13.08,4.1,28.59-3.73,41.5-12,19.82-34.14,22.85-46.25,22.9a25.33,25.33,0,0,0-25.26,25.21V417.4a12.89,12.89,0,0,0,12.87,12.88h44a12.9,12.9,0,0,0,12.88-12.88V407.19a.56.56,0,0,1,.39-.54,127.66,127.66,0,0,0,46.71-29.26c22.22-22.1,33.49-50.62,33.49-84.77C534.16,243.74,509.75,217.06,489.26,203.28Z"/><path class="cls-7" d="M417.57,453h3.56a31.71,31.71,0,0,1,0,63.41h-3.56a31.71,31.71,0,0,1,0-63.41Z"/><path class="cls-7" d="M396.5,439.68h44a12.69,12.69,0,0,0,12.88-12.47V407.34a.56.56,0,0,1,.38-.53,106.56,106.56,0,0,0,20.72-10.07c-28.12-.2-79.36-.48-90.85-.06v30.53A12.69,12.69,0,0,0,396.5,439.68Z"/><path class="cls-8" d="M432.74,219.43l-28.23-82c-6-20.53-22.89-34.17-43.24-27.64l-1.85.71A38.22,38.22,0,0,0,336.54,157c5.27,17.77,11.32,37.33,15,46.53,7.63,19.05,27.61,13.7,27.61,13.7s4.44,12.7,6.37,18.4l10.34,10.22,4.27-4.67Z"/><path class="cls-9" d="M379.15,217.24s12.33-4,22.07-17c0,0-.44,16.7-20.2,22.36Z"/><path class="cls-5" d="M350.36,170a2.92,2.92,0,0,0,3.7,1.74,2.8,2.8,0,0,0,1.86-3.55,2.93,2.93,0,0,0-3.7-1.74A2.8,2.8,0,0,0,350.36,170Z"/><path class="cls-5" d="M343.56,163c.48.23,1.95-2.1,4.9-3.23s5.67-.49,5.85-1c.09-.22-.5-.73-1.71-1.06a8.11,8.11,0,0,0-4.85.34,7.67,7.67,0,0,0-3.72,3C343.39,162.11,343.33,162.87,343.56,163Z"/><path class="cls-5" d="M374.94,160.21c.48.23,2-2.1,4.9-3.23s5.67-.49,5.85-1c.1-.22-.49-.73-1.7-1.05a8.11,8.11,0,0,0-4.85.34,7.75,7.75,0,0,0-3.73,3C374.78,159.35,374.72,160.12,374.94,160.21Z"/><path class="cls-5" d="M370.83,179.18c-.05-.17-2,.22-5.11,1-.78.22-1.55.34-1.87-.12a4,4,0,0,1-.36-2.42c0-2.09,0-4.28,0-6.58-.06-9.33-.41-16.89-.79-16.88s-.63,7.57-.57,16.91q0,3.44.09,6.57a4.75,4.75,0,0,0,.75,3.1,2,2,0,0,0,1.66.62,5.61,5.61,0,0,0,1.35-.31C369,180.05,370.88,179.35,370.83,179.18Z"/><path class="cls-5" d="M368.14,143.68c.69.59,3.24-1.3,6.69-2.71s6.55-2,6.6-2.91c0-.43-.84-.88-2.29-1A12.53,12.53,0,0,0,369,141.33C368.1,142.47,367.83,143.39,368.14,143.68Z"/><path class="cls-5" d="M340.08,154.37c.87.44,3-1.14,5.9-2.24s5.52-1.53,5.82-2.44c.12-.43-.51-1-1.82-1.2a9.92,9.92,0,0,0-5.22.67,9.77,9.77,0,0,0-4.22,3.1C339.77,153.33,339.69,154.14,340.08,154.37Z"/><path class="cls-8" d="M408.1,151.28c.27-.27,11.65-9,16.29,4.27s-9.62,15.17-9.78,14.8S408.1,151.28,408.1,151.28Z"/><path class="cls-9" d="M416.9,163.92c.05-.07.29.08.74.12a2.46,2.46,0,0,0,1.74-.57c1.22-1,1.62-3.64.85-6.05a8.11,8.11,0,0,0-1.8-3.07,2.84,2.84,0,0,0-2.36-1.17,1.25,1.25,0,0,0-1.14,1.11c-.05.43.13.67.07.72s-.37-.13-.45-.71a1.55,1.55,0,0,1,.23-1,1.87,1.87,0,0,1,1.16-.79,3.49,3.49,0,0,1,3.13,1.21,8.42,8.42,0,0,1,2.09,3.42c.85,2.69.36,5.67-1.36,6.89a2.64,2.64,0,0,1-2.24.39C417,164.23,416.87,164,416.9,163.92Z"/><path class="cls-5" d="M380.83,177.85c-.47.12.55,3.18-1.34,6.22s-5.26,3.8-5.14,4.24c0,.2.93.35,2.31-.08a8,8,0,0,0,4.35-3.35,7,7,0,0,0,.93-5.16C381.62,178.4,381,177.76,380.83,177.85Z"/><path class="cls-5" d="M303.47,147.71a3.36,3.36,0,0,1,.83-2.35c1.2-1.43,3-1.92,4.67-2.55a29.53,29.53,0,0,0,11-7.3,14.9,14.9,0,0,1-4.45-1.25c-2.89-1.38-5.27-4.21-5.3-7.42a2,2,0,0,1,.6-1.63c.76-.57,1.81,0,2.65.47,2.75,1.51,4.9,1.81,7.74.48a12.45,12.45,0,0,0,4.5-3.26,2.44,2.44,0,0,0,.1-.24c.44-1,.87-1.87,1.31-2.76h0c3.24-6.7,6.31-11.63,10.1-15,5.54-4.88,16-9.74,23.34-10.35s15.33,2.73,18.7,9.3c2.65-4.53,8.34-6.5,13.59-6.27l.1-.09c5.77,0,10.59,4.41,13.94,9.1l.54.78a21.52,21.52,0,0,0,9.27,4.31c.59.11,1.29.27,1.55.82a1.76,1.76,0,0,1-.4,1.67,10.93,10.93,0,0,1-3.54,3.19,24,24,0,0,0,3,3c.92.77,2,1.71,1.87,2.9a2.29,2.29,0,0,1-1.91,1.79,7,7,0,0,1-2.77-.24q1.59,1.74,3.16,3.5A12.93,12.93,0,0,1,412,130c.63,5.27,3,14.61,2.91,18.37-3.49,1.3-4.48,1.22-6.05,2.43-2,1.57.28,5.32-3.1,5.21-1.73-.05-6.09-5-7.14-6.35a80,80,0,0,1-14.54-30.84,25.89,25.89,0,0,0-9.41-2.77l.3.13c-6.07,0-12.85.33-17.09,4.68-3.28,3.38-4.17,8.34-6,12.68-3.44,8.24-8.65,13.83-16.94,17.16,1.3,6.11,4.45,15.74,6.08,21.29l-8.5-9.27v.05a22.88,22.88,0,0,1-1.66-1.59l-.18-.16v0c-.85-.87-1.67-1.75-2.63-2.56l0,.06c-2,3.65-7.79,1.2-6.58-2.8a8.24,8.24,0,0,1,1.07-2.24,5.72,5.72,0,0,1-4.67,3.14,4.47,4.47,0,0,1-4.46-3.12,3.79,3.79,0,0,1,1.13-3.64,13,13,0,0,1-7.45.91C305.4,150.4,303.61,149.59,303.47,147.71Z"/><path class="cls-10" d="M374,108.27a19.56,19.56,0,0,1,2.57,1.09,14.89,14.89,0,0,1,5.24,5.39A26.21,26.21,0,0,1,384,119.5c.63,1.78,1.16,3.74,1.74,5.8a52.3,52.3,0,0,0,2.09,6.4,22.89,22.89,0,0,0,1.62,3.2,7.37,7.37,0,0,0,2.51,2.77,3.09,3.09,0,0,0,3.06,0,4.68,4.68,0,0,0,2-2.25,10.71,10.71,0,0,0,.13-5.58l-.39.19a17.66,17.66,0,0,0,3.78,3.23,6.11,6.11,0,0,0,4.49.72,3.94,3.94,0,0,0,1.88-1.05,3.45,3.45,0,0,0,.88-1.82,3.53,3.53,0,0,0-.19-1.86,2.56,2.56,0,0,0-1.15-1.29l-.14.26a13.24,13.24,0,0,0,5.26,1.65,11.69,11.69,0,0,0,1.46.05,2,2,0,0,0,.51-.05l-.51,0c-.33,0-.82,0-1.45-.12a13.8,13.8,0,0,1-5.13-1.75l-.14.25a2.62,2.62,0,0,1,1.14,2.83,3,3,0,0,1-.81,1.62,3.54,3.54,0,0,1-1.7.93,5.7,5.7,0,0,1-4.19-.72,16.83,16.83,0,0,1-3.67-3.17l-.49-.52.11.72a10.36,10.36,0,0,1-.12,5.33,4.19,4.19,0,0,1-1.77,2,2.6,2.6,0,0,1-2.59,0,7.08,7.08,0,0,1-2.34-2.6,23.61,23.61,0,0,1-1.59-3.13,55.28,55.28,0,0,1-2.1-6.34c-.58-2.06-1.13-4-1.79-5.82a26.34,26.34,0,0,0-2.31-4.79,14.59,14.59,0,0,0-5.44-5.37A8.43,8.43,0,0,0,374,108.27Z"/><path class="cls-10" d="M320.71,148.23s.06,0,.2.08l.61.18a5.89,5.89,0,0,0,1,.24,11.75,11.75,0,0,0,1.4.2,18.16,18.16,0,0,0,8.82-1.43,23.29,23.29,0,0,0,10.17-8.43,40.24,40.24,0,0,0,6-15.12c.58-2.84.88-5.65,1.37-8.31a27.16,27.16,0,0,1,2.25-7.43,14,14,0,0,1,4.39-5.35,10.24,10.24,0,0,1,2.82-1.38,11.29,11.29,0,0,1,2.88-.43,11.76,11.76,0,0,1,4.89,1,11.89,11.89,0,0,1,3.19,2.07,13.7,13.7,0,0,1,2,2.55s0-.07-.09-.2l-.3-.56a9.79,9.79,0,0,0-1.5-1.93,11.63,11.63,0,0,0-3.21-2.17,12,12,0,0,0-5-1.11,11.2,11.2,0,0,0-3,.42,10.2,10.2,0,0,0-3,1.4,14.49,14.49,0,0,0-4.56,5.49,27.21,27.21,0,0,0-2.31,7.53c-.5,2.69-.8,5.49-1.38,8.31a40.2,40.2,0,0,1-5.86,15,23.09,23.09,0,0,1-9.93,8.37,18.52,18.52,0,0,1-8.67,1.56A28.79,28.79,0,0,1,320.71,148.23Z"/><path class="cls-10" d="M316,140.34a3.09,3.09,0,0,0,.86.24,16.27,16.27,0,0,0,2.43.32,20.6,20.6,0,0,0,3.63-.08,24.26,24.26,0,0,0,4.36-.91,24.54,24.54,0,0,0,4.09-1.76,21.9,21.9,0,0,0,3-2,16.89,16.89,0,0,0,1.8-1.66,3.74,3.74,0,0,0,.57-.69c-.07-.07-.95.86-2.58,2.08a24.6,24.6,0,0,1-3,1.91,24,24,0,0,1-8.29,2.62,23.12,23.12,0,0,1-3.57.18C317.21,140.51,316,140.25,316,140.34Z"/><path class="cls-5" d="M352.21,279c-.17.05,2.1,11.4,4.32,23.18h.7C355,290.36,352.39,278.91,352.21,279Z"/><path class="cls-11" d="M361.8,302.71c6.41,0,12.32-4.63,13.22-10.93,2-14.14,10.09-38.09,44.12-38.67C445.07,252.66,456,271,459,279.18c4.85,13,4.25,28.68-3.63,41.57-12.1,19.79-34.36,22.82-46.56,22.86a25.41,25.41,0,0,0-25.43,25.18v52.86l70.24-1.32v-13.2a.58.58,0,0,1,.39-.54,122.27,122.27,0,0,0,37.38-20.93l-4.57-60.88s13.37-25.68,12.7-31.46c-6.05-52.81-24-82.69-31.31-85.47-8.19-3.13-39.83-1.61-39.83-1.61s-13.67,25.32-32.84,28.13C384.92,235.93,381,222.61,381,222.61l-24.78,14.52c-17.63,8.9-21.05,43.51-21.38,65.58Z"/><g class="cls-12"><path d="M443.19,333.81c14.15,3.6,28.11,8.16,42.27,11.77a5.35,5.35,0,0,1,2.88,1.39c1,1.21.8,3,.34,4.57A27.79,27.79,0,0,1,480.15,364c-3.08,2.7-6.77,5-10.85,5.31-4.56.35-8.93-1.76-12.78-4.22A67.32,67.32,0,0,1,433,339.19s3.32-1.36,5.86-2.72A45,45,0,0,0,443.19,333.81Z"/></g><path class="cls-8" d="M458.75,279.55c5.66,13.06,4.22,28.55-3.84,41.43a44.67,44.67,0,0,1-16.4,15.68,134,134,0,0,0,20.22,18.47c7.23,5.13,23.89,3.67,30.21-7.56,7.8-13.86,8.45-49.27,8.45-49.27L498.87,277l-43.6-6.67-.35,1.19A47.06,47.06,0,0,1,458.75,279.55Z"/><path class="cls-10" d="M382.83,270.58l-2.48,3.91c-1.89,1.3-3.68.59-4.85-1.83l-26.84-40.85,6.54-4.16,29.64,39.17S385.26,268.9,382.83,270.58Z"/><path class="cls-5" d="M320.83,231.11a29.87,29.87,0,1,1,41.81-38.57h0a29.87,29.87,0,0,1-41.81,38.57Zm28.44-50.24a27.84,27.84,0,1,0,11.56,12.51A27.83,27.83,0,0,0,349.27,180.87Z"/><path class="cls-10" d="M322.1,229.85a29.87,29.87,0,1,1,41.82-38.56h0a29.87,29.87,0,0,1-41.82,38.56Zm28.44-50.24a27.86,27.86,0,1,0,11.56,12.52A27.83,27.83,0,0,0,350.54,179.61Z"/><path class="cls-4" d="M361.66,204.28a3.14,3.14,0,0,1,0-.49c0-.32,0-.79-.05-1.4a21.36,21.36,0,0,0-1-5,27.83,27.83,0,0,0-1.31-3.3,29.52,29.52,0,0,0-2-3.53,27.25,27.25,0,0,0-2.81-3.52,26.72,26.72,0,0,0-3.59-3.24,24.84,24.84,0,0,0-4.13-2.48,26.65,26.65,0,0,0-4.24-1.51,25.22,25.22,0,0,0-7.56-.77,24,24,0,0,0-5.08.79c-.6.13-1,.31-1.35.39a3.53,3.53,0,0,1-.48.13,2.9,2.9,0,0,1,.46-.19c.3-.1.74-.3,1.33-.45a22.43,22.43,0,0,1,5.11-.9,25.36,25.36,0,0,1,7.65.71,26.59,26.59,0,0,1,4.29,1.52,24.66,24.66,0,0,1,4.2,2.51,25.94,25.94,0,0,1,3.62,3.28,27.66,27.66,0,0,1,2.82,3.56,29.41,29.41,0,0,1,2,3.58,25.43,25.43,0,0,1,1.28,3.35,20.1,20.1,0,0,1,.9,5.1,10.79,10.79,0,0,1,0,1.41A1.72,1.72,0,0,1,361.66,204.28Z"/><path class="cls-4" d="M330.49,228.6c0-.07,1.38.44,3.68.75l.91.11c.31,0,.64,0,1,.06.68,0,1.41,0,2.18,0a25.15,25.15,0,0,0,4.91-.77,25.93,25.93,0,0,0,4.64-1.8c.67-.38,1.31-.71,1.88-1.1l.82-.54c.25-.19.49-.38.73-.55,1.83-1.43,2.75-2.55,2.81-2.5a8.61,8.61,0,0,1-.65.78,9.41,9.41,0,0,1-.84.85,14.67,14.67,0,0,1-1.18,1.05l-.73.57c-.25.19-.53.37-.82.56a21.73,21.73,0,0,1-1.88,1.14,22.51,22.51,0,0,1-9.68,2.61c-.77,0-1.51,0-2.2,0-.34,0-.68,0-1-.07l-.92-.14a13.36,13.36,0,0,1-1.55-.3,10,10,0,0,1-1.15-.32A6.61,6.61,0,0,1,330.49,228.6Z"/><path class="cls-4" d="M351,209.47c-.06.06-4-3.84-8.69-8.71s-8.53-8.87-8.47-8.93,4,3.84,8.7,8.71S351.11,209.41,351,209.47Z"/><path class="cls-4" d="M346.45,217.29a1.74,1.74,0,0,1-.29-.27l-.76-.84-2.79-3.1c-2.35-2.62-5.6-6.23-9.24-10.17s-7-7.48-9.39-10l-2.86-3-.77-.84a1.69,1.69,0,0,1-.25-.3,1.78,1.78,0,0,1,.29.26l.82.79c.7.69,1.7,1.7,2.93,3,2.47,2.51,5.83,6,9.47,10s6.87,7.58,9.17,10.24c1.15,1.33,2.08,2.41,2.71,3.17l.72.87Z"/><g class="cls-12"><path class="cls-4" d="M322.09,180.7l36.68,39.85s-3,4.15-5.69,6l-37.46-40.78A21.45,21.45,0,0,1,322.09,180.7Z"/></g><g class="cls-12"><path class="cls-4" d="M312.47,190.32l36.08,38.83s.33.18-2.15.81L311.45,192.3A4.94,4.94,0,0,1,312.47,190.32Z"/></g><path class="cls-8" d="M407.44,254.38c-7.7-6.19-26.59-21.32-27.45-21.73-1.09-.5-17.71-6.41-20.89-4.51s-11.72,12.61-11.72,12.61.81,6.66,8.25,1.9l6.66-4.27h0l7.92,1.84s-9.66,4-11.7,6.16-5.27,10.23-3.25,12.1a7.8,7.8,0,0,0,4.35,2s-4,5.66,3.08,9.08c0,0,1,4.76,4.52,6.62s10,1.21,10,1.21a3.07,3.07,0,0,0,.77-4.74c-2.24-2.95-6.37-3.36-6.37-3.36l5.12-3a23.79,23.79,0,0,1,6.61,3.86,57.27,57.27,0,0,1,9.33-9.36C397.89,257.05,407.44,254.38,407.44,254.38Z"/><path class="cls-9" d="M374.68,256.89a3.11,3.11,0,0,0-.76.05,11.44,11.44,0,0,0-2,.47A13.36,13.36,0,0,0,363,267.1a11.37,11.37,0,0,0-.3,2.06,2.37,2.37,0,0,0,0,.76c.07,0,.08-1.08.54-2.75a13.86,13.86,0,0,1,8.74-9.51C373.61,257.07,374.7,257,374.68,256.89Z"/><path class="cls-9" d="M375,248.28a4.08,4.08,0,0,0-.81.06,8.93,8.93,0,0,0-.94.15,11.41,11.41,0,0,0-1.23.3A18.65,18.65,0,0,0,369,250a19.57,19.57,0,0,0-6.37,4.9,18.44,18.44,0,0,0-1.91,2.69c-.25.4-.43.78-.6,1.12s-.29.62-.39.87a3.53,3.53,0,0,0-.26.77c.07,0,.49-1.05,1.48-2.62a19.57,19.57,0,0,1,1.94-2.6,23.13,23.13,0,0,1,2.9-2.71,26.48,26.48,0,0,1,3.5-2.38,17.09,17.09,0,0,1,2.87-1C373.88,248.49,375,248.36,375,248.28Z"/><path class="cls-9" d="M376.47,238.39a2.15,2.15,0,0,0-1.08-.24,5.9,5.9,0,0,0-2.62.47,5,5,0,0,0-2.16,1.56c-.44.52-.61.92-.57.94a9.61,9.61,0,0,1,2.88-2.16A9.38,9.38,0,0,1,376.47,238.39Z"/><path class="cls-11" d="M465.18,207.05s24.39,2.34,32.13,23.53c6.15,16.82,9.49,67.21,7.95,68.23l-43.07-1.37c-.56-12.29-3.87-21.76-8.51-27.89Z"/><path class="cls-9" d="M462.85,297.44a3.57,3.57,0,0,1,.85.47c.53.33,1.27.84,2.16,1.49a57.93,57.93,0,0,1,6.55,5.69,67.32,67.32,0,0,1,5.71,6.53c.67.89,1.2,1.61,1.54,2.13a4.11,4.11,0,0,1,.5.83,29,29,0,0,1-2.33-2.73c-1.41-1.7-3.41-4-5.78-6.39a81.41,81.41,0,0,0-6.41-5.77C463.92,298.31,462.81,297.5,462.85,297.44Z"/><path class="cls-5" d="M457.73,245.61c.14,0-.65,5.4-1.77,12s-2.14,11.95-2.28,11.93.65-5.41,1.77-12S457.58,245.58,457.73,245.61Z"/><path class="cls-5" d="M403.53,396.71a3.29,3.29,0,0,1,.72-.11l2.05-.21,7.58-.71c6.39-.62,15.22-1.54,24.94-2.77s18.5-2.53,24.85-3.53l7.51-1.19,2-.31a4.81,4.81,0,0,1,.72-.08,3.34,3.34,0,0,1-.7.18l-2,.41c-1.76.34-4.32.81-7.49,1.35-6.33,1.09-15.11,2.46-24.84,3.69s-18.57,2.09-25,2.61c-3.2.27-5.8.45-7.59.56l-2.07.11A3.3,3.3,0,0,1,403.53,396.71Z"/><path class="cls-5" d="M399.72,390.27a13,13,0,0,1,1.78-.16l4.84-.26,16-.82,16-.92,4.85-.27a12.64,12.64,0,0,1,1.78,0,11.11,11.11,0,0,1-1.77.24c-1.14.12-2.79.27-4.83.44-4.09.33-9.73.73-16,1.07s-11.9.56-16,.67c-2.05.06-3.71.09-4.85.09A10.87,10.87,0,0,1,399.72,390.27Z"/><path class="cls-8" d="M331.14,299.1a5.11,5.11,0,0,1,.78-1.71,5,5,0,0,1,8.5.18,3.12,3.12,0,0,1,2.33-3,3.57,3.57,0,0,1,3.39,1,5.07,5.07,0,0,1,1.74,2.87c1.05-2.36,6.45-2.07,7.1-.3,0,0,4.64-5.08,7-2.59,1,1,.56,2.63-.09,4.23-.87,2.13-1.45,3-2.59,5.36l-4.39.24c-.37,1.37-1.15,7-1.32,8.38a9.57,9.57,0,0,1-1.2,4.06,4.23,4.23,0,0,1-3.48,2.14,2.76,2.76,0,0,1-2.74-2.66,6.7,6.7,0,0,1-1.67,3.18,3.57,3.57,0,0,1-3.32,1,2.49,2.49,0,0,1-1.86-2.72c-1.57,1.08-3.88.12-4.88-1.51a9.87,9.87,0,0,1-.95-5.55,12.75,12.75,0,0,0-.46-5.18,4.43,4.43,0,0,1-.35-.73,8.79,8.79,0,0,1-.06-1.26,9.33,9.33,0,0,0-.53-2.6c-.06-.18-.14-.36-.22-.54-.21-.47-.52-.87-.77-1.33a1,1,0,0,1-.11-.31A2.07,2.07,0,0,1,331.14,299.1Z"/><path class="cls-8" d="M326.2,296.66a4.07,4.07,0,0,0-3.24,1.07c-.93,1-1.14,3.52-1,4.91,1.63.31,2.5-.05,4.13.26.34.06.63,0,.91.18.75.53.63,2.32.93,3.19a3.15,3.15,0,0,0,4,1.7,4.22,4.22,0,0,0,2.54-3.75,6.54,6.54,0,0,0-1.66-4.38A9.06,9.06,0,0,0,326.2,296.66Z"/><path class="cls-9" d="M353.92,311.45c-.16,0,.51-3,.93-6.72A30.55,30.55,0,0,0,355,300a14.72,14.72,0,0,1-.13-2,5.09,5.09,0,0,1,.49,1.95,21.11,21.11,0,0,1,0,4.84,37.1,37.1,0,0,1-.85,4.76A7,7,0,0,1,353.92,311.45Z"/><path class="cls-9" d="M346,317.85a17.83,17.83,0,0,1,.44-2.84c.31-1.74.76-4.15,1.1-6.82a48.33,48.33,0,0,0,.42-6.87c0-1.76-.15-2.85-.07-2.87a10.25,10.25,0,0,1,.44,2.85,36.84,36.84,0,0,1-.27,6.95,64.55,64.55,0,0,1-1.26,6.83A15,15,0,0,1,346,317.85Z"/><path class="cls-9" d="M339.29,319a26.93,26.93,0,0,1,.54-3.16,62.4,62.4,0,0,0,.91-7.66,63.31,63.31,0,0,0-.07-7.7,31,31,0,0,1-.2-3.21,2.87,2.87,0,0,1,.22.84c.11.55.23,1.34.35,2.33a47.13,47.13,0,0,1-.84,15.47c-.23,1-.43,1.75-.6,2.28A3.12,3.12,0,0,1,339.29,319Z"/><path class="cls-9" d="M330.44,299.41a2.79,2.79,0,0,1,1.37.69,6.92,6.92,0,0,1,2.23,3,6,6,0,0,1,.29,3.71c-.29,1-.9,1.3-.92,1.24a4.9,4.9,0,0,0,.56-1.33,6.51,6.51,0,0,0-.42-3.43,8,8,0,0,0-2-2.88C330.91,299.77,330.4,299.48,330.44,299.41Z"/></g></svg>